name processed_emg_signals
nRows=37
nColumns=7
 
endheader
time	LGLTMED	LRF	LADDLONG	LBF	LTA	LGM
13.269999999999952	0.3973801510714724	0.6919849681699539	0.2624290706479765	0.4230059205742146	0.8040044836505426	0.578688431687126
13.279999999999951	0.3958094907466398	0.6912261550171798	0.26042375073563	0.4226747132513005	0.7991099322241819	0.5773408307502138
13.289999999999951	0.3942741052818348	0.6904754558430487	0.2584364362908436	0.4223568258825441	0.7941317080990453	0.5759190301754749
13.299999999999951	0.3927739718188183	0.6897349377998887	0.2564686456212631	0.4220523499966543	0.7890756228337794	0.5744228797610245
13.30999999999995	0.3913090873783007	0.6890066007736884	0.2545218643704071	0.4217614101331478	0.7839475128406802	0.5728523745756496
13.31999999999995	0.3898794711271309	0.6882923713003343	0.2525975435875135	0.4214841634421931	0.7787532287447431	0.5712076585374817
13.32999999999995	0.3884851664892069	0.6875940968543314	0.2506970978904039	0.4212207990956778	0.7734986249845394	0.5694890275695482
13.33999999999995	0.3871262430872771	0.6869135405294795	0.2488219037237141	0.4209715375063833	0.7681895496758352	0.5676969323124086
13.34999999999995	0.385802798504806	0.6862523761308348	0.2469732977150081	0.4207366293524588	0.7628318347579138	0.565831980375147
13.35999999999995	0.3845149598597882	0.6856121836963271	0.2451525751312086	0.4205163544047957	0.7574312864409916	0.5638949381077412
13.36999999999995	0.383262885184611	0.684994445464481	0.2433609884374465	0.420311020155743	0.7519936759716327	0.5618867318805668
13.37999999999995	0.3820467646076714	0.6844005423027267	0.2415997459601348	0.4201209602489797	0.7465247307311413	0.5598084488608203
13.389999999999949	0.3808668213332923	0.6838317506085447	0.2398700106558918	0.4199465327123494	0.7410301256802787	0.5576613372800445
13.399999999999949	0.379723312417265	0.6832892396937192	0.2381728989879204	0.4197881179976852	0.7355154751620824	0.5554468061915909
13.409999999999949	0.3786165293360747	0.6827740696603114	0.2365094799115232	0.4196461168335542	0.7299863250734014	0.5531664247203533
13.419999999999948	0.3775467983487039	0.6822871897758988	0.2348807739703173	0.419520947897976	0.7244481454145889	0.5508219208098168
13.429999999999948	0.3765144806504188	0.6818294373548266	0.2332877525048189	0.4194130453187016	0.7189063232252513	0.5484151794729503
13.439999999999948	0.3755199723184425	0.6814015371516003	0.2317313369749687	0.4193228560086171	0.713366155912276	0.5459482405543161
13.449999999999948	0.3745637040496516	0.681004101271385	0.2302123983983795	0.419250836843648	0.7078328449744588	0.5434232960109248
13.459999999999948	0.3736461406905256	0.6806376296010767	0.2287317569060033	0.4191974516906097	0.7023114901266869	0.5408426867201384
13.469999999999947	0.3727677805594525	0.6803025107621603	0.227290181416704	0.4191631682930809	0.696807083825475	0.5382088988239382
13.479999999999947	0.3719291545611641	0.6799990235844605	0.2258883894317798	0.4191484550246488	0.6913245061969122	0.5355245596200879
13.489999999999947	0.3711308250930962	0.6797273390977459	0.2245270469498605	0.419153777520598	0.68586852036771	0.5327924330118085
13.499999999999947	0.3703733847433078	0.6794875230364358	0.2232067685020339	0.4191795952012934	0.6804437682002249	0.5300154145284194
13.509999999999946	0.3696574547799228	0.67927953885079	0.2219281173064245	0.4192263577027174	0.6750547664329396	0.5271965259305069
13.519999999999946	0.3689836834323289	0.6791032512160099	0.2206916055410517	0.419294501232005	0.6697059032289201	0.5243389094140148
13.529999999999946	0.3683527439651664	0.6789584300284226	0.2194976947331532	0.4193844448676478	0.6644014351348431	0.5214458214283452
13.539999999999946	0.3677653325476613	0.6788447548756873	0.2183467962626681	0.4194965868251326	0.6591454844527176	0.518520626124002
13.549999999999946	0.3672221659224889	0.6787618199658207	0.2172392719768802	0.4196313007088787	0.6539420370249829	0.5155667884457107
13.559999999999945	0.3667239788805576	0.6787091394975573	0.2161754349125595	0.4197889317712207	0.6487949404321725	0.5125878668883308
13.569999999999945	0.3662715215503017	0.6786861534522368	0.2151555501213235	0.4199697931990458	0.643707902601026	0.5095875059343999
13.579999999999945	0.365865556512182	0.6786922337850264	0.2141798355932421	0.4201741624487796	0.6386844908198752	0.5065694281940653
13.589999999999945	0.3655068557503413	0.6787266909909303	0.2132484632731041	0.4204022776506103	0.6337281311572763	0.5035374262692373
13.599999999999945	0.3651961974538378	0.6787887810187336	0.2123615601630353	0.4206543341028582	0.6288421082786311	0.5004953543650354
13.609999999999944	0.3649343626795771	0.6788777125038835	0.2115192095046673	0.4209304808769735	0.624029565654231	0.4974471196734277
13.619999999999944	0.3647221318887853	0.6789926542890812	0.2107214520335942	0.4212308175528833	0.6192935061506174	0.4943966735564818
13.629999999999944	0.3645602813689479	0.6791327431993577	0.2099682872985855	0.421555391103151	0.6146367929957953	0.4913480025590507
